<?xml version="1.0" encoding="UTF-8" standalone="no"?>
<svg
   viewBox="0 0 48.5 48.5"
   aria-hidden="true"
   version="1.1"
   id="svg3"
   sodipodi:docname="sedna.svg"
   inkscape:version="1.4.3 (0d15f750, 2025-12-25)"
   xmlns:inkscape="http://www.inkscape.org/namespaces/inkscape"
   xmlns:sodipodi="http://sodipodi.sourceforge.net/DTD/sodipodi-0.dtd"
   xmlns="http://www.w3.org/2000/svg"
   xmlns:svg="http://www.w3.org/2000/svg">
  <sodipodi:namedview
     id="namedview1"
     pagecolor="#505050"
     bordercolor="#ffffff"
     borderopacity="1"
     inkscape:showpageshadow="0"
     inkscape:pageopacity="0"
     inkscape:pagecheckerboard="1"
     inkscape:deskcolor="#505050"
     inkscape:zoom="18.14433"
     inkscape:cx="27.97017"
     inkscape:cy="24.222443"
     inkscape:window-width="1874"
     inkscape:window-height="1158"
     inkscape:window-x="2240"
     inkscape:window-y="25"
     inkscape:window-maximized="0"
     inkscape:current-layer="svg3" />
  <defs
     id="defs3" />
  <path
     fill="#ffffff"
     d="M 11.671881,29.08574 C 10.974405,24.361385 7.2210715,20.632685 2.4834473,19.971225 V 12.235228 H 0.22045453 v 9.484099 c 0.1383572,-0.0066 0.2786096,-0.01015 0.4194938,-0.01015 4.90757417,0 8.88644257,3.977613 8.88644257,8.88581 0,0.0846 -0.00548,0.168678 -0.00706,0.251444 h 0.00706 v 2.179599 h 2.1612781 v -3.940958 h -0.01588 z"
     id="path1"
     style="stroke-width:0.631773" />
  <path
     fill="#ffffff"
     d="m 40.54747,30.9305 v -5.113522 0 c -0.513625,-2.813262 -3.160103,-4.94611 -6.120581,-4.94611 -3.335097,0 -6.037794,2.701432 -6.037794,6.035274 0,3.049537 2.26173,5.563353 5.198179,5.972733 v 0.06386 h 14.672181 v -2.012183 z m -2.163169,-0.08342 h -4.041436 v -0.0056 c -2.137891,-0.04427 -3.856298,-1.787242 -3.856298,-3.935884 0,-2.175177 1.763888,-3.939703 3.940958,-3.939703 2.175178,0 3.911276,1.667868 3.911276,3.843042 0,0.394229 0.05612,0.861105 0.04553,1.231949 v 2.80568 z"
     id="path2"
     style="stroke-width:0.631773" />
  <path
     fill="#ffffff"
     d="m 20.829985,21.594874 v -2.469587 0 c -0.248282,-1.358299 -1.526342,-2.389345 -2.956672,-2.389345 -1.609108,0 -2.91308,1.305865 -2.91308,2.915612 0,1.471385 1.092326,2.685642 2.510006,2.883388 v 0.03154 h 7.08528 v -0.971639 h -3.725534 z m -1.043674,-0.04046 h -1.95216 v -0.0013 c -1.032315,-0.02204 -1.86183,-0.863623 -1.86183,-1.901617 0,-1.05063 0.851001,-1.902886 1.901628,-1.902886 1.052521,0 1.890246,0.804241 1.890246,1.855506 0,0.190788 0.0271,0.416333 0.02205,0.595125 z"
     id="path3"
     style="stroke-width:0.631773" />
</svg>
